<?xml version="1.0" encoding="UTF-8"?>
<svg width="24px" height="24px" viewBox="0 0 24 24" version="1.1" xmlns="http://www.w3.org/2000/svg" xmlns:xlink="http://www.w3.org/1999/xlink">
    <!-- Generator: sketchtool 51 (57462) - http://www.bohemiancoding.com/sketch -->
    <title>74EB00C3-6E0E-4987-81CF-FF05C548C333</title>
    <desc>Created with sketchtool.</desc>
    <defs>
        <path d="M18.96384,16.2 C18.66624,15.045 18.09144,14.0046 17.31084,13.1502 C17.86104,12.8076 18.50484,12.6 19.20024,12.6 C21.18504,12.6 22.80024,14.2146 22.80024,16.2 L18.96384,16.2 Z M18.00024,19.2 L6.00024,19.2 L6.00024,18 C6.00024,14.943 8.29944,12.4182 11.25804,12.051 L10.21164,17.2824 C10.17204,17.4792 10.23384,17.6826 10.37604,17.8242 L11.57604,19.0242 C11.68704,19.1364 11.84184,19.2 12.00024,19.2 C12.15804,19.2 12.31224,19.1358 12.42444,19.0242 L13.62444,17.8242 C13.76604,17.6826 13.82724,17.4792 13.78824,17.2824 L12.74184,12.051 C15.70104,12.4182 18.00024,14.943 18.00024,18 L18.00024,19.2 Z M5.03604,16.2 L1.20024,16.2 C1.20024,14.2146 2.81484,12.6 4.80024,12.6 C5.49564,12.6 6.13884,12.8076 6.68904,13.1502 C5.90844,14.0046 5.33364,15.045 5.03604,16.2 Z M3.60024,9 C3.60024,8.3382 4.13844,7.8 4.80024,7.8 C5.46144,7.8 6.00024,8.3382 6.00024,9 L6.00024,10.2 C6.00024,10.8618 5.46144,11.4 4.80024,11.4 C4.13844,11.4 3.60024,10.8618 3.60024,10.2 L3.60024,9 Z M12.54864,17.2026 L12.00024,17.751 L11.45124,17.2026 L12.00024,14.4594 L12.54864,17.2026 Z M9.60024,8.4 L9.60024,7.2 C9.60024,5.8764 10.67664,4.8 12.00024,4.8 C13.32324,4.8 14.40024,5.8764 14.40024,7.2 L14.40024,8.4 C14.40024,9.7236 13.32324,10.8 12.00024,10.8 C10.67664,10.8 9.60024,9.7236 9.60024,8.4 Z M18.00024,9 C18.00024,8.3382 18.53844,7.8 19.20024,7.8 C19.86144,7.8 20.40024,8.3382 20.40024,9 L20.40024,10.2 C20.40024,10.8618 19.86144,11.4 19.20024,11.4 C18.53844,11.4 18.00024,10.8618 18.00024,10.2 L18.00024,9 Z M21.01284,11.757 C21.37404,11.337 21.60024,10.7976 21.60024,10.2 L21.60024,9 C21.60024,7.6746 20.52564,6.6 19.20024,6.6 C17.87484,6.6 16.80024,7.6746 16.80024,9 L16.80024,10.2 C16.80024,10.7988 17.02704,11.3388 17.38944,11.7594 C17.03664,11.904 16.70484,12.0894 16.40064,12.3102 C15.77124,11.8224 15.06024,11.4372 14.28984,11.178 C15.08964,10.518 15.60024,9.5184 15.60024,8.4 L15.60024,7.2 C15.60024,5.2122 13.98804,3.6 12.00024,3.6 C10.01184,3.6 8.40024,5.2122 8.40024,7.2 L8.40024,8.4 C8.40024,9.5184 8.91024,10.518 9.71004,11.178 C8.93964,11.4372 8.22864,11.8224 7.59984,12.3102 C7.29504,12.0894 6.96324,11.904 6.61044,11.7594 C6.97284,11.3388 7.20024,10.7988 7.20024,10.2 L7.20024,9 C7.20024,7.6746 6.12564,6.6 4.80024,6.6 C3.47484,6.6 2.40024,7.6746 2.40024,9 L2.40024,10.2 C2.40024,10.7976 2.62644,11.337 2.98704,11.757 C1.23564,12.4722 0.00024,14.1906 0.00024,16.2 L0.00024,16.8 C0.00024,17.13 0.27024,17.4 0.60024,17.4 L4.83024,17.4 C4.81404,17.5986 4.80024,17.7978 4.80024,18 L4.80024,19.2 L4.80024,19.8 C4.80024,20.13 5.07024,20.4 5.40024,20.4 L18.60024,20.4 C18.92964,20.4 19.20024,20.13 19.20024,19.8 L19.20024,19.2 L19.20024,18 C19.20024,17.7978 19.18584,17.5986 19.16964,17.4 L23.40024,17.4 C23.72964,17.4 24.00024,17.13 24.00024,16.8 L24.00024,16.2 C24.00024,14.1906 22.76424,12.4722 21.01284,11.757 Z" id="path-1"></path>
    </defs>
    <g id="Symbols" stroke="none" stroke-width="1" fill="none" fill-rule="evenodd">
        <g id="ic/stats/teachers">
            <mask id="mask-2" fill="white">
                <use xlink:href="#path-1"></use>
            </mask>
            <use id="Fill-3" fill="#00BEFF" xlink:href="#path-1"></use>
        </g>
    </g>
</svg>