<?xml version="1.0" encoding="UTF-8"?>
<svg width="24px" height="24px" viewBox="0 0 24 24" version="1.1" xmlns="http://www.w3.org/2000/svg" xmlns:xlink="http://www.w3.org/1999/xlink">
    <!-- Generator: sketchtool 51 (57462) - http://www.bohemiancoding.com/sketch -->
    <title>857BC3A1-EAB2-4DD9-8A2E-BB4208A9609B</title>
    <desc>Created with sketchtool.</desc>
    <defs>
        <path d="M21.3,9.05124 L19.7484,7.50024 L21,6.24864 L22.551,7.80024 L21.3,9.05124 Z M19.2,15.24864 L19.2,15.60024 L19.2,18.00024 C19.2,18.66204 18.6618,19.20024 18,19.20024 L7.2,19.20024 C6.5382,19.20024 6,18.66204 6,18.00024 L6,6.00024 C6,5.33844 6.5382,4.80024 7.2,4.80024 L9.6,4.80024 L9.6,6.00024 C9.6,6.66264 10.1376,7.20024 10.8,7.20024 L14.4,7.20024 C15.0624,7.20024 15.6,6.66264 15.6,6.00024 L15.6,4.80024 L18,4.80024 C18.6618,4.80024 19.2,5.33844 19.2,6.00024 L19.2,6.35124 L15.9516,9.60024 L15,9.60024 L13.8,9.60024 L9,9.60024 C8.67,9.60024 8.4,9.87024 8.4,10.20024 C8.4,10.52964 8.67,10.80024 9,10.80024 L13.8,10.80024 L14.7516,10.80024 L12.3516,13.20024 L12,13.20024 L10.2,13.20024 L9,13.20024 C8.67,13.20024 8.4,13.47024 8.4,13.80024 C8.4,14.12964 8.67,14.40024 9,14.40024 L10.2,14.40024 L11.388,14.40024 L10.812,17.28204 C10.7718,17.47884 10.8342,17.68224 10.9758,17.82444 C11.1174,17.96604 11.3202,18.02724 11.517,17.98824 L14.517,17.38824 C14.6352,17.36484 14.739,17.30904 14.8242,17.22444 L19.2,12.84864 L19.2,15.24864 Z M3.6,18.00024 L3.6,6.00024 C3.6,5.33844 4.1382,4.80024 4.8,4.80024 L5.133,4.80024 C4.9266,5.15424 4.8,5.56044 4.8,6.00024 L4.8,18.00024 C4.8,18.43944 4.9266,18.84564 5.133,19.20024 L4.8,19.20024 C4.1382,19.20024 3.6,18.66204 3.6,18.00024 Z M1.2,18.00024 L1.2,6.00024 C1.2,5.33844 1.7382,4.80024 2.4,4.80024 L2.733,4.80024 C2.5266,5.15424 2.4,5.56044 2.4,6.00024 L2.4,18.00024 C2.4,18.43944 2.5266,18.84564 2.733,19.20024 L2.4,19.20024 C1.7382,19.20024 1.2,18.66204 1.2,18.00024 Z M10.8,6.00024 L14.4,6.00024 L14.4,4.80024 L10.8,4.80024 L10.8,6.00024 Z M12.5526,14.69604 L18.9,8.34864 L20.451,9.90024 L14.1036,16.24704 L12.165,16.63524 L12.5526,14.69604 Z M24,7.80024 C24,7.63944 23.9376,7.48884 23.8242,7.37604 L21.4242,4.97604 C21.3126,4.86384 21.1584,4.80024 21,4.80024 C20.8416,4.80024 20.6874,4.86384 20.5758,4.97604 L20.2764,5.27484 C19.9674,4.30644 19.071,3.60024 18,3.60024 L15.6,3.60024 L14.4,3.60024 L10.8,3.60024 L9.6,3.60024 L7.2,3.60024 L4.8,3.60024 L2.4,3.60024 C1.0746,3.60024 0,4.67484 0,6.00024 L0,18.00024 C0,19.32564 1.0746,20.40024 2.4,20.40024 L4.8,20.40024 L7.2,20.40024 L18,20.40024 C19.3254,20.40024 20.4,19.32564 20.4,18.00024 L20.4,15.60024 L20.4,14.04864 L20.4,11.64864 L23.8242,8.22444 C23.9376,8.11104 24,7.96044 24,7.80024 Z" id="path-1"></path>
    </defs>
    <g id="Symbols" stroke="none" stroke-width="1" fill="none" fill-rule="evenodd">
        <g id="ic/stats/quiz">
            <mask id="mask-2" fill="white">
                <use xlink:href="#path-1"></use>
            </mask>
            <use id="Fill-3" fill="#00BEFF" xlink:href="#path-1"></use>
        </g>
    </g>
</svg>