<?xml version="1.0" encoding="UTF-8"?>
<svg width="24px" height="24px" viewBox="0 0 24 24" version="1.1" xmlns="http://www.w3.org/2000/svg" xmlns:xlink="http://www.w3.org/1999/xlink">
    <!-- Generator: sketchtool 51 (57462) - http://www.bohemiancoding.com/sketch -->
    <title>AEC51961-76AD-4B56-8F24-0FDBFE0AC559</title>
    <desc>Created with sketchtool.</desc>
    <defs>
        <path d="M14.4,19.7742113 C14.4,18.0427848 13.8108,16.4535498 12.8298,15.1971163 C12.831,15.1977292 12.8316,15.198955 12.8322,15.1995679 C13.89,14.2379367 15.2754,13.6452679 16.8,13.6452679 C20.1084,13.6452679 22.8,16.3947119 22.8,19.7742113 L14.4,19.7742113 Z M1.2,19.7742113 C1.2,16.3947119 3.8916,13.6452679 7.2,13.6452679 C10.5084,13.6452679 13.2,16.3947119 13.2,19.7742113 L1.2,19.7742113 Z M4.8,9.96790181 L4.8,8.74211312 C4.8,7.39006819 5.877,6.29053574 7.2,6.29053574 C8.523,6.29053574 9.6,7.39006819 9.6,8.74211312 L9.6,9.96790181 C9.6,11.3199467 8.523,12.4194792 7.2,12.4194792 C5.877,12.4194792 4.8,11.3199467 4.8,9.96790181 Z M14.4,9.96790181 L14.4,8.74211312 C14.4,7.39006819 15.477,6.29053574 16.8,6.29053574 C18.123,6.29053574 19.2,7.39006819 19.2,8.74211312 L19.2,9.96790181 C19.2,11.3199467 18.123,12.4194792 16.8,12.4194792 C15.477,12.4194792 14.4,11.3199467 14.4,9.96790181 Z M14.4,3.69554109 L15.6342,4.45185271 L14.4,5.20816433 L14.4,3.69554109 Z M19.2,3.69554109 L19.2,5.20816433 L17.9658,4.45185271 L19.2,3.69554109 Z M19.0896,12.8056026 C19.8894,12.1314188 20.4,11.1103369 20.4,9.96790181 L20.4,8.74211312 C20.4,8.06547776 20.2182,7.43419659 19.9062,6.88994641 C19.9716,6.87768852 20.0364,6.8586888 20.0958,6.82375382 C20.2842,6.71527152 20.4,6.5111777 20.4,6.29053574 L20.4,2.61316968 C20.4,2.39252771 20.2842,2.18843389 20.0958,2.0799516 C19.908,1.9708564 19.677,1.97330798 19.491,2.08791922 L16.8,3.7372179 L14.109,2.08791922 C13.923,1.97330798 13.692,1.9708564 13.5042,2.0799516 C13.3158,2.18843389 13.2,2.39252771 13.2,2.61316968 L13.2,6.29053574 C13.2,6.5111777 13.3158,6.71527152 13.5042,6.82375382 C13.5636,6.8586888 13.6284,6.87768852 13.6938,6.88994641 C13.3818,7.43419659 13.2,8.06547776 13.2,8.74211312 L13.2,9.96790181 C13.2,11.1121755 13.7124,12.1338704 14.514,12.8086671 C13.5756,13.1316624 12.7206,13.6409776 11.9988,14.3022906 C11.2776,13.6422034 10.4286,13.1273721 9.4896,12.8056026 C10.2894,12.1314188 10.8,11.1103369 10.8,9.96790181 L10.8,8.74211312 C10.8,6.71159415 9.1878,5.06474705 7.2,5.06474705 C5.2122,5.06474705 3.6,6.71159415 3.6,8.74211312 L3.6,9.96790181 C3.6,11.1103369 4.1106,12.1314188 4.9104,12.8056026 C2.058,13.783782 0,16.5307744 0,19.7742113 L0,20.3871057 C0,20.7241975 0.27,21 0.6,21 L13.8,21 L23.4,21 C23.73,21 24,20.7241975 24,20.3871057 L24,19.7742113 C24,16.5307744 21.942,13.783782 19.0896,12.8056026 Z" id="path-1"></path>
    </defs>
    <g id="Symbols" stroke="none" stroke-width="1" fill="none" fill-rule="evenodd">
        <g id="ic/stats/students">
            <mask id="mask-2" fill="white">
                <use xlink:href="#path-1"></use>
            </mask>
            <use id="Fill-3" fill="#00BEFF" xlink:href="#path-1"></use>
        </g>
    </g>
</svg>